<svg width="512" height="512" viewBox="0 0 512 512" xmlns="http://www.w3.org/2000/svg">
  <!-- Black background -->
  <rect width="512" height="512" fill="#000000"/>
  
  <!-- Yellow location pin marker -->
  <g transform="translate(256, 256)">
    <!-- Main pin body (teardrop shape) -->
    <path d="M 0 -180 
             C -80 -180 -145 -115 -145 -35 
             C -145 -5 -135 25 -115 50 
             Q -80 95 0 180 
             Q 80 95 115 50 
             C 135 25 145 -5 145 -35 
             C 145 -115 80 -180 0 -180 Z" 
          fill="#F9D616"/>
    
    <!-- Black circle inside -->
    <circle cx="0" cy="-35" r="95" fill="#1a1a1a"/>
    
    <!-- Karnataka map (simplified red silhouette) -->
    <g transform="translate(0, -35) scale(1.3)">
      <path d="M 0 -38 
               C 3 -40 7 -40 10 -38 
               L 18 -32 C 24 -26 28 -18 30 -10 
               L 32 0 C 32 8 30 16 26 23 
               L 18 32 C 12 36 5 38 0 38 
               C -5 38 -12 36 -18 32 
               L -26 23 C -30 16 -32 8 -32 0 
               L -30 -10 C -28 -18 -24 -26 -18 -32 
               L -10 -38 C -7 -40 -3 -40 0 -38 Z" 
            fill="#CE1126"/>
    </g>
  </g>
</svg>
